# xmcd
#
# Track frame offsets: 
#        183
#        22245
#        43540
#        63333
#        92460
#        105093
#        119433
#        157490
#        200758
#        229713
#        273058
#
# Disc length: 3863 seconds
#
# Revision: 2
# Processed by: cddbd v1.5.2PL0 Copyright (c) Steve Scherf et al.
# Submitted via: ExactAudioCopy v0.99pb4
#
DISCID=900f150b
DTITLE=Satriani,  Vai, May, Bettencourt, Walsh - Una Noche A Sevilla (
DTITLE=Disc 1 of 2)
DYEAR=1991
DGENRE=
TTITLE0=Satch boogie
TTITLE1=Surfing with the alien
TTITLE2=Always with me, always with you
TTITLE3=Big bad moon
TTITLE4=Liberty
TTITLE5=Greasy kid's stuff
TTITLE6=The animal
TTITLE7=For the love of God
TTITLE8=More than Words
TTITLE9=Get the funk out
TTITLE10=Instrumental
EXTD=
EXTT0=
EXTT1=
EXTT2=
EXTT3=
EXTT4=
EXTT5=
EXTT6=
EXTT7=
EXTT8=
EXTT9=
EXTT10=
PLAYORDER=
